<svg width="400" height="400" viewBox="0 0 400 400" fill="none" xmlns="http://www.w3.org/2000/svg">
<path d="M200 340C277.32 340 340 286.274 340 220C340 153.726 277.32 100 200 100C122.68 100 60 153.726 60 220C60 286.274 122.68 340 200 340Z" fill="#ED93A1"/>
<path d="M200 228C248.601 228 288 188.601 288 140C288 91.3989 248.601 52 200 52C151.399 52 112 91.3989 112 140C112 188.601 151.399 228 200 228Z" fill="#ED93A1"/>
<path d="M200 208C226.51 208 248 190.091 248 168C248 145.909 226.51 128 200 128C173.49 128 152 145.909 152 168C152 190.091 173.49 208 200 208Z" fill="#D27A88"/>
<path d="M180 180C186.627 180 192 176.418 192 172C192 167.582 186.627 164 180 164C173.373 164 168 167.582 168 172C168 176.418 173.373 180 180 180Z" fill="#9D5F6A"/>
<path d="M220 180C226.627 180 232 176.418 232 172C232 167.582 226.627 164 220 164C213.373 164 208 167.582 208 172C208 176.418 213.373 180 220 180Z" fill="#9D5F6A"/>
<path d="M144.418 125.106C161.025 119.061 167.138 93.9667 158.071 69.0558C149.004 44.1449 128.191 28.8506 111.584 34.8952C94.9765 40.9398 88.8638 66.0341 97.9306 90.9451C106.997 115.856 127.81 131.15 144.418 125.106Z" fill="#ED93A1"/>
<path d="M160 136C168.837 136 176 128.837 176 120C176 111.163 168.837 104 160 104C151.163 104 144 111.163 144 120C144 128.837 151.163 136 160 136Z" fill="#212022"/>
<path d="M255.584 125.105C272.191 131.15 293.004 115.856 302.071 90.9447C311.138 66.0338 305.025 40.9394 288.418 34.8948C271.811 28.8503 250.998 44.1445 241.931 69.0554C232.864 93.9664 238.977 119.061 255.584 125.105Z" fill="#ED93A1"/>
<path d="M164 122C167.314 122 170 119.314 170 116C170 112.686 167.314 110 164 110C160.686 110 158 112.686 158 116C158 119.314 160.686 122 164 122Z" fill="white"/>
<path d="M136.208 102.553C144.512 99.5306 147.568 86.9834 143.035 74.5279C138.501 62.0724 128.095 54.4253 119.791 57.4476C111.487 60.4699 108.431 73.0171 112.964 85.4725C117.498 97.928 127.904 105.575 136.208 102.553Z" fill="#D27A88"/>
<path d="M263.792 102.552C272.096 105.574 282.502 97.9273 287.036 85.4719C291.569 73.0164 288.513 60.4692 280.209 57.4469C271.905 54.4247 261.499 62.0718 256.965 74.5272C252.432 86.9827 255.488 99.5299 263.792 102.552Z" fill="#D27A88"/>
<path d="M124 300H116C107.163 300 100 307.163 100 316V344C100 352.837 107.163 360 116 360H124C132.837 360 140 352.837 140 344V316C140 307.163 132.837 300 124 300Z" fill="#ED93A1"/>
<path d="M184 300H176C167.163 300 160 307.163 160 316V344C160 352.837 167.163 360 176 360H184C192.837 360 200 352.837 200 344V316C200 307.163 192.837 300 184 300Z" fill="#ED93A1"/>
<path d="M224 300H216C207.163 300 200 307.163 200 316V344C200 352.837 207.163 360 216 360H224C232.837 360 240 352.837 240 344V316C240 307.163 232.837 300 224 300Z" fill="#ED93A1"/>
<path d="M284 300H276C267.163 300 260 307.163 260 316V344C260 352.837 267.163 360 276 360H284C292.837 360 300 352.837 300 344V316C300 307.163 292.837 300 284 300Z" fill="#ED93A1"/>
<path d="M240 136C248.837 136 256 128.837 256 120C256 111.163 248.837 104 240 104C231.163 104 224 111.163 224 120C224 128.837 231.163 136 240 136Z" fill="#212022"/>
<path d="M244 122C247.314 122 250 119.314 250 116C250 112.686 247.314 110 244 110C240.686 110 238 112.686 238 116C238 119.314 240.686 122 244 122Z" fill="white"/>
</svg>
